<svg width="22" height="21" viewBox="0 0 22 21" fill="none" xmlns="http://www.w3.org/2000/svg">
<g clip-path="url(#clip0_4181_74)">
<path d="M11.0558 0.311523C5.4282 0.311523 0.867188 4.87254 0.867188 10.5002C0.867188 16.1278 5.4282 20.6888 11.0558 20.6888C16.6835 20.6888 21.2445 16.1278 21.2445 10.5002C21.2445 4.87254 16.6835 0.311523 11.0558 0.311523ZM13.3045 8.77288L13.1891 10.2972H11.625V15.5905H9.65092V10.2972H8.59623V8.77288H9.65092V7.75003C9.65092 7.3003 9.66286 6.60381 9.98921 6.17C10.3355 5.7123 10.8091 5.40187 11.625 5.40187C12.9543 5.40187 13.5115 5.59291 13.5115 5.59291L13.2488 7.15304C13.2488 7.15304 12.811 7.02568 12.4011 7.02568C11.9911 7.02568 11.625 7.17294 11.625 7.58288V8.77288H13.3045Z" fill="white"/>
</g>
<defs>
<clipPath id="clip0_4181_74">
<rect width="20.3773" height="20.3773" fill="white" transform="translate(0.867188 0.311523)"/>
</clipPath>
</defs>
</svg>
