<svg width="36" height="36" viewBox="0 0 36 36" fill="none" xmlns="http://www.w3.org/2000/svg">
<g clip-path="url(#clip0_3330_749)">
<path d="M36 9V36H0V9H9.08789C9.06445 8.8125 9.04688 8.625 9.03516 8.4375C9.02344 8.25 9.01172 8.0625 9 7.875C9 6.78516 9.20508 5.76562 9.61523 4.81641C10.0254 3.86719 10.5879 3.0293 11.3027 2.30273C12.0176 1.57617 12.8496 1.01367 13.7988 0.615234C14.748 0.216797 15.7734 0.0117188 16.875 0C17.9648 0 18.9844 0.205078 19.9336 0.615234C20.8828 1.02539 21.7207 1.58789 22.4473 2.30273C23.1738 3.01758 23.7363 3.84961 24.1348 4.79883C24.5332 5.74805 24.7383 6.77344 24.75 7.875C24.75 8.0625 24.7441 8.25 24.7324 8.4375C24.7207 8.625 24.6973 8.8125 24.6621 9H36ZM16.875 2.25C16.1016 2.25 15.375 2.39648 14.6953 2.68945C14.0156 2.98242 13.418 3.38672 12.9023 3.90234C12.3867 4.41797 11.9824 5.01562 11.6895 5.69531C11.3965 6.375 11.25 7.10156 11.25 7.875C11.25 8.64844 11.3965 9.375 11.6895 10.0547C11.9824 10.7344 12.3809 11.332 12.8848 11.8477C13.3887 12.3633 13.9863 12.7676 14.6777 13.0605C15.3691 13.3535 16.1016 13.5 16.875 13.5C17.6484 13.5 18.375 13.3535 19.0547 13.0605C19.7344 12.7676 20.3262 12.3691 20.8301 11.8652C21.334 11.3613 21.7383 10.7637 22.043 10.0723C22.3477 9.38086 22.5 8.64844 22.5 7.875C22.5 7.10156 22.3535 6.375 22.0605 5.69531C21.7676 5.01562 21.3633 4.42383 20.8477 3.91992C20.332 3.41602 19.7344 3.01172 19.0547 2.70703C18.375 2.40234 17.6484 2.25 16.875 2.25ZM33.75 11.25H23.9941C23.7012 11.8594 23.3379 12.4277 22.9043 12.9551C22.4707 13.4824 21.9727 13.9336 21.4102 14.3086C22.6172 14.7773 23.707 15.3984 24.6797 16.1719C25.6523 16.9453 26.4727 17.8359 27.1406 18.8438C27.8086 19.8516 28.3301 20.9531 28.7051 22.1484C29.0801 23.3438 29.2617 24.5859 29.25 25.875V27H27V25.875C27 24.4336 26.7422 23.0977 26.2266 21.8672C25.7109 20.6367 25.002 19.5645 24.0996 18.6504C23.1973 17.7363 22.1309 17.0273 20.9004 16.5234C19.6699 16.0195 18.3281 15.7617 16.875 15.75C15.5742 15.75 14.3438 15.9727 13.1836 16.418C12.0234 16.8633 10.9922 17.4902 10.0898 18.2988C9.1875 19.1074 8.44922 20.0566 7.875 21.1465C7.30078 22.2363 6.94336 23.4375 6.80273 24.75H18.1934L14.1504 20.707L15.75 19.125L22.5 25.875L15.75 32.625L14.1504 31.043L18.1934 27H4.5V25.875C4.5 24.5859 4.68164 23.3496 5.04492 22.166C5.4082 20.9824 5.93555 19.8867 6.62695 18.8789C7.31836 17.8711 8.14453 16.9805 9.10547 16.207C10.0664 15.4336 11.1504 14.8066 12.3574 14.3262C11.209 13.5176 10.3418 12.4922 9.75586 11.25H2.25V33.75H33.75V11.25Z" fill="white"/>
</g>
<defs>
<clipPath id="clip0_3330_749">
<rect width="36" height="36" fill="white"/>
</clipPath>
</defs>
</svg>
