<svg width="36" height="36" viewBox="0 0 36 36" fill="none" xmlns="http://www.w3.org/2000/svg">
<g clip-path="url(#clip0_3330_733)">
<path d="M7.5 20.25H28.5M18 20.25V36M9.75 16.5V9.75H7.992C6.99305 9.75001 6.0225 10.0824 5.23329 10.6948C4.44407 11.3072 3.88107 12.1648 3.633 13.1325L0.75 24.375V24.75H11.25V27C11.25 29.25 11.25 30.75 12.375 33C12.375 33 13.5 35.25 15 35.25M26.25 16.5V9.75H28.008C29.007 9.75001 29.9775 10.0824 30.7667 10.6948C31.5559 11.3072 32.1189 12.1648 32.367 13.1325L35.25 24.375V24.75H24.75V27C24.75 29.25 24.75 30.75 23.625 33C23.625 33 22.5 35.25 21 35.25M9.525 6.75C9.525 6.75 7.125 5.25 7.125 3.375C7.125 2.6796 7.40125 2.01269 7.89297 1.52097C8.38469 1.02925 9.0516 0.753 9.747 0.753C10.4424 0.753 11.1093 1.02925 11.601 1.52097C12.0928 2.01269 12.369 2.6796 12.369 3.375C12.369 5.25 9.975 6.75 9.975 6.75H9.525ZM26.475 6.75C26.475 6.75 28.875 5.25 28.875 3.375C28.875 2.67881 28.5984 2.01113 28.1062 1.51884C27.6139 1.02656 26.9462 0.75 26.25 0.75C24.801 0.75 23.631 1.926 23.631 3.375C23.631 5.25 26.025 6.75 26.025 6.75H26.475Z" stroke="white" stroke-width="2"/>
</g>
<defs>
<clipPath id="clip0_3330_733">
<rect width="36" height="36" fill="white"/>
</clipPath>
</defs>
</svg>
