<svg width="21" height="21" viewBox="0 0 21 21" fill="none" xmlns="http://www.w3.org/2000/svg">
<path d="M13.3419 7.2499C14.1687 7.20962 14.2959 8.5643 13.3885 8.44558C12.6359 8.42438 12.5405 7.27111 13.3419 7.2499Z" fill="#414141"/>
<path d="M16.0502 10.4772C16.1159 5.62874 14.174 5.00122 9.74538 5.27046C6.69473 5.03514 5.49693 7.34593 5.48846 10.0786C5.32311 12.754 6.14777 16.1354 9.47827 15.8513C13.6356 15.7771 16.2431 15.3552 16.0502 10.4772ZM8.78079 2.13289C13.5423 1.68981 19.0542 2.37245 19.12 8.33172C19.2874 11.075 19.3765 14.0154 18.0324 16.5043C16.6014 18.938 14.2164 18.8362 11.7361 18.8935C9.55458 18.9804 7.30529 19.1691 5.20226 18.4547C3.05895 17.7127 2.47596 16.0951 2.5226 13.9794C2.4484 12.1583 2.3742 10.3415 2.406 8.51828C2.512 4.19774 4.39878 2.03325 8.78079 2.13289Z" fill="white"/>
<path d="M9.74742 5.27024C14.1761 5.001 16.1158 5.62852 16.0522 10.4769C16.2452 15.355 13.6376 15.7748 9.48241 15.8511C6.14979 16.1352 5.32724 12.7517 5.4926 10.0784C5.49897 7.34571 6.69675 5.03492 9.74742 5.27024ZM15.1194 10.6296C15.1194 7.62768 14.7506 6.03767 11.3416 6.19031C10.3283 6.28995 9.14321 6.13943 8.12562 6.485C6.08195 7.48351 6.36392 10.2289 6.5526 12.1326C6.73704 15.2087 9.28738 15.1176 11.6745 14.7741C14.6064 14.6194 15.147 13.3537 15.1194 10.6296Z" fill="#414141"/>
<path d="M11.1302 8.65957C8.97209 8.54934 8.30643 12.1045 10.6744 12.2C12.9004 12.1469 13.2417 9.29345 11.1302 8.65957ZM10.6787 7.84337C14.4056 7.5911 14.1767 13.0988 10.6617 13.0607C7.33123 12.9589 7.64287 8.14018 10.6787 7.84337Z" fill="#414141"/>
<path d="M10.6755 12.2002C8.30746 12.1027 8.97102 8.54748 11.1313 8.65983C13.2407 9.29372 12.8994 12.1472 10.6755 12.2002Z" fill="white"/>
<path d="M11.341 6.19C14.7499 6.03524 15.1209 7.62734 15.1188 10.6292C15.1443 13.3534 14.6058 14.619 11.6738 14.7738C9.28674 15.1173 6.7364 15.2084 6.55196 12.1323C6.36328 10.2264 6.08343 7.48317 8.12498 6.48466C9.14257 6.13912 10.3277 6.28964 11.341 6.19ZM10.6669 13.0609C14.1797 13.099 14.4107 7.5913 10.6838 7.84358C7.64586 8.14038 7.33424 12.9591 10.6669 13.0609ZM13.3889 8.44566C14.2963 8.56438 14.1691 7.21182 13.3423 7.24998C12.5409 7.27119 12.6363 8.42446 13.3889 8.44566Z" fill="white"/>
</svg>
