<svg width="20" height="21" viewBox="0 0 20 21" fill="none" xmlns="http://www.w3.org/2000/svg">
<path d="M11.177 10.7059C11.177 13.5811 8.8621 15.912 6.00639 15.912C3.1507 15.912 0.835938 13.5818 0.835938 10.7059C0.835938 7.83003 3.15087 5.5 6.00639 5.5C8.86194 5.5 11.177 7.83073 11.177 10.7059ZM16.8493 10.7059C16.8493 13.4126 15.6917 15.6065 14.2639 15.6065C12.8362 15.6065 11.6786 13.4118 11.6786 10.7059C11.6786 7.99998 12.8362 5.80533 14.2639 5.80533C15.6917 5.80533 16.8493 7.99998 16.8493 10.7059ZM19.1693 10.7059C19.1693 13.1309 18.7621 15.0967 18.2599 15.0967C17.7579 15.0967 17.3507 13.1302 17.3507 10.7059C17.3507 8.2816 17.7579 6.31518 18.2602 6.31518C18.7624 6.31518 19.1693 8.28107 19.1693 10.7059Z" fill="white"/>
</svg>
