<svg width="21" height="21" viewBox="0 0 21 21" fill="none" xmlns="http://www.w3.org/2000/svg">
<g clip-path="url(#clip0_4181_77)">
<path d="M10.4347 0.311523C4.80711 0.311523 0.246094 4.87254 0.246094 10.5002C0.246094 16.1278 4.80711 20.6888 10.4347 20.6888C16.0624 20.6888 20.6234 16.1278 20.6234 10.5002C20.6234 4.87254 16.0624 0.311523 10.4347 0.311523ZM14.5022 8.91616C14.5062 9.00371 14.5062 9.09525 14.5062 9.18679C14.5062 11.9529 12.4008 15.1448 8.54825 15.1448C7.36621 15.1448 6.26376 14.7985 5.34042 14.2055C5.5036 14.2254 5.67075 14.2334 5.84189 14.2334C6.82096 14.2334 7.7244 13.899 8.44079 13.3379C7.5254 13.3219 6.74932 12.717 6.48664 11.8852C6.614 11.9091 6.74534 11.921 6.88065 11.921C7.07169 11.921 7.25875 11.8971 7.43387 11.8454C6.4747 11.6544 5.75433 10.8066 5.75433 9.79174V9.76786C6.03691 9.92308 6.35928 10.0186 6.70156 10.0305C6.14039 9.65642 5.77025 9.01167 5.77025 8.28732C5.77025 7.90525 5.87373 7.54308 6.05283 7.23264C7.08761 8.50224 8.62785 9.33405 10.3671 9.42161C10.3313 9.27037 10.3114 9.11117 10.3114 8.94401C10.3114 7.78983 11.2506 6.85057 12.4048 6.85057C13.0058 6.85057 13.551 7.10528 13.9331 7.51124C14.4107 7.41572 14.8565 7.24458 15.2624 7.0018C15.1072 7.49134 14.7729 7.90127 14.343 8.15997C14.7649 8.10823 15.1709 7.99679 15.545 7.82963C15.2664 8.2515 14.9122 8.61766 14.5022 8.91616Z" fill="white"/>
</g>
<defs>
<clipPath id="clip0_4181_77">
<rect width="20.3773" height="20.3773" fill="white" transform="translate(0.246094 0.311523)"/>
</clipPath>
</defs>
</svg>
