<svg width="30" height="30" viewBox="0 0 30 30" fill="none" xmlns="http://www.w3.org/2000/svg">
<path d="M4.71261 13.0712C4.71261 12.2187 5.05126 11.4012 5.65405 10.7984C6.25685 10.1956 7.07442 9.85693 7.9269 9.85693C8.77938 9.85693 9.59694 10.1956 10.1997 10.7984C10.8025 11.4012 11.1412 12.2187 11.1412 13.0712C11.1412 13.9237 10.8025 14.7413 10.1997 15.3441C9.59694 15.9469 8.77938 16.2855 7.9269 16.2855C7.07442 16.2855 6.25685 15.9469 5.65405 15.3441C5.05126 14.7413 4.71261 13.9237 4.71261 13.0712ZM7.9269 11.7855C7.5859 11.7855 7.25888 11.921 7.01776 12.1621C6.77664 12.4032 6.64118 12.7302 6.64118 13.0712C6.64118 13.4122 6.77664 13.7392 7.01776 13.9804C7.25888 14.2215 7.5859 14.3569 7.9269 14.3569C8.26789 14.3569 8.59492 14.2215 8.83603 13.9804C9.07715 13.7392 9.21261 13.4122 9.21261 13.0712C9.21261 12.7302 9.07715 12.4032 8.83603 12.1621C8.59492 11.921 8.26789 11.7855 7.9269 11.7855ZM7.9269 18.8569C7.07442 18.8569 6.25685 19.1956 5.65405 19.7984C5.05126 20.4012 4.71261 21.2187 4.71261 22.0712C4.71261 22.9237 5.05126 23.7413 5.65405 24.3441C6.25685 24.9469 7.07442 25.2855 7.9269 25.2855C8.77938 25.2855 9.59694 24.9469 10.1997 24.3441C10.8025 23.7413 11.1412 22.9237 11.1412 22.0712C11.1412 21.2187 10.8025 20.4012 10.1997 19.7984C9.59694 19.1956 8.77938 18.8569 7.9269 18.8569ZM6.64118 22.0712C6.64118 21.7302 6.77664 21.4032 7.01776 21.1621C7.25888 20.921 7.5859 20.7855 7.9269 20.7855C8.26789 20.7855 8.59492 20.921 8.83603 21.1621C9.07715 21.4032 9.21261 21.7302 9.21261 22.0712C9.21261 22.4122 9.07715 22.7392 8.83603 22.9804C8.59492 23.2215 8.26789 23.3569 7.9269 23.3569C7.5859 23.3569 7.25888 23.2215 7.01776 22.9804C6.77664 22.7392 6.64118 22.4122 6.64118 22.0712ZM13.7126 12.7498C13.7126 12.494 13.8142 12.2488 13.995 12.0679C14.1759 11.8871 14.4212 11.7855 14.6769 11.7855H24.3198C24.5755 11.7855 24.8208 11.8871 25.0016 12.0679C25.1824 12.2488 25.284 12.494 25.284 12.7498C25.284 13.0055 25.1824 13.2508 25.0016 13.4316C24.8208 13.6125 24.5755 13.7141 24.3198 13.7141H14.6769C14.4212 13.7141 14.1759 13.6125 13.995 13.4316C13.8142 13.2508 13.7126 13.0055 13.7126 12.7498ZM14.6769 20.7855C14.4212 20.7855 14.1759 20.8871 13.995 21.0679C13.8142 21.2488 13.7126 21.494 13.7126 21.7498C13.7126 22.0055 13.8142 22.2508 13.995 22.4316C14.1759 22.6125 14.4212 22.7141 14.6769 22.7141H24.3198C24.5755 22.7141 24.8208 22.6125 25.0016 22.4316C25.1824 22.2508 25.284 22.0055 25.284 21.7498C25.284 21.494 25.1824 21.2488 25.0016 21.0679C24.8208 20.8871 24.5755 20.7855 24.3198 20.7855H14.6769ZM4.71261 6.32122C4.71261 6.06547 4.81421 5.8202 4.99504 5.63937C5.17588 5.45853 5.42115 5.35693 5.6769 5.35693H24.3198C24.5755 5.35693 24.8208 5.45853 25.0016 5.63937C25.1824 5.8202 25.284 6.06547 25.284 6.32122C25.284 6.57696 25.1824 6.82223 25.0016 7.00307C24.8208 7.18391 24.5755 7.2855 24.3198 7.2855H5.6769C5.42115 7.2855 5.17588 7.18391 4.99504 7.00307C4.81421 6.82223 4.71261 6.57696 4.71261 6.32122ZM5.6769 0.856934C4.39818 0.856934 3.17183 1.3649 2.26763 2.2691C1.36344 3.17329 0.855469 4.39964 0.855469 5.67836V24.3212C0.855469 25.5999 1.36344 26.8263 2.26763 27.7305C3.17183 28.6347 4.39818 29.1426 5.6769 29.1426H24.3198C25.5985 29.1426 26.8248 28.6347 27.729 27.7305C28.6332 26.8263 29.1412 25.5999 29.1412 24.3212V5.67836C29.1412 4.39964 28.6332 3.17329 27.729 2.2691C26.8248 1.3649 25.5985 0.856934 24.3198 0.856934H5.6769ZM2.78404 5.67836C2.78404 4.91113 3.08882 4.17532 3.63134 3.6328C4.17385 3.09029 4.90966 2.78551 5.6769 2.78551H24.3198C25.087 2.78551 25.8228 3.09029 26.3653 3.6328C26.9078 4.17532 27.2126 4.91113 27.2126 5.67836V24.3212C27.2126 25.0885 26.9078 25.8243 26.3653 26.3668C25.8228 26.9093 25.087 27.2141 24.3198 27.2141H5.6769C4.90966 27.2141 4.17385 26.9093 3.63134 26.3668C3.08882 25.8243 2.78404 25.0885 2.78404 24.3212V5.67836Z" fill="white"/>
</svg>
