<svg width="20" height="21" viewBox="0 0 20 21" fill="none" xmlns="http://www.w3.org/2000/svg">
<path fill-rule="evenodd" clip-rule="evenodd" d="M17.165 4.21633C17.9544 4.42762 18.5747 5.04788 18.7859 5.83718C19.1678 7.26636 19.1693 10.25 19.1693 10.25C19.1693 10.25 19.1693 13.2336 18.7859 14.6628C18.5747 15.4521 17.9544 16.0723 17.165 16.2836C15.7359 16.6669 10.0026 16.6669 10.0026 16.6669C10.0026 16.6669 4.26929 16.6669 2.8401 16.2836C2.05081 16.0723 1.43055 15.4521 1.21926 14.6628C0.835938 13.2336 0.835938 10.25 0.835938 10.25C0.835938 10.25 0.835938 7.26636 1.21926 5.83718C1.43055 5.04788 2.05081 4.42762 2.8401 4.21633C4.26929 3.83301 10.0026 3.83301 10.0026 3.83301C10.0026 3.83301 15.7359 3.83301 17.165 4.21633ZM12.9304 10.2503L8.1675 12.9999V7.50052L12.9304 10.2503Z" fill="white"/>
</svg>
