<svg width="120" height="39" viewBox="0 0 120 39" fill="none" xmlns="http://www.w3.org/2000/svg">
<path d="M22.1328 34.0357V28.8967C23.1816 28.8967 24.2352 28.7972 25.26 28.9231C26.3508 29.0585 26.6904 30.2081 25.98 31.046C25.8984 31.1419 25.8204 31.2414 25.74 31.3409C26.508 31.8672 26.7564 32.3251 26.4996 33.0887C26.3796 33.4483 26.0004 33.7228 25.7388 34.0357H22.1328ZM22.7988 31.7197V33.4615C23.5248 33.4615 24.2268 33.4711 24.9276 33.4615C25.4724 33.4507 25.8324 33.181 25.854 32.614C25.8744 32.0218 25.4328 31.7749 24.9504 31.7377C24.2592 31.6742 23.5524 31.7197 22.7988 31.7197ZM22.7988 31.1384C23.6148 31.0724 24.3588 31.0616 25.0788 30.925C25.2876 30.8854 25.5852 30.4671 25.5588 30.2573C25.5252 29.9864 25.23 29.5656 25.0068 29.538C24.2868 29.4457 23.538 29.5033 22.794 29.5033L22.7988 31.1384Z" fill="white"/>
<path d="M57.4023 34.0361V28.667C57.8127 28.9067 58.1547 29.0038 58.3479 29.2292C59.3079 30.356 60.2223 31.5152 61.2411 32.7715V28.8672C61.5759 28.8864 61.9551 28.6442 61.9611 29.1669C61.9611 30.79 61.9311 32.413 61.9119 34.0373H61.2675C60.2751 32.7751 59.2815 31.5128 58.1787 30.1127V34.0373L57.4023 34.0361Z" fill="white"/>
<path d="M33.2038 34.0368C32.1238 33.3535 31.8238 32.3346 31.9078 31.1203C31.9582 30.3783 31.9174 29.6303 31.9174 28.8607H32.689C32.689 29.8832 32.6818 30.8841 32.689 31.8863C32.6974 32.759 33.2062 33.5849 34.3234 33.4614C35.0962 33.3763 35.6362 32.8537 35.6518 32.0229C35.6722 30.9968 35.6578 29.9719 35.6578 28.8751L36.403 28.8379C36.403 30.0031 36.4498 31.1155 36.3874 32.2219C36.3406 33.0383 35.7646 33.5765 35.1334 34.0344L33.2038 34.0368Z" fill="white"/>
<path d="M67.6953 34.0369V28.8356C68.8437 28.8356 69.9297 28.8272 71.0157 28.8488C71.1237 28.8488 71.2269 29.0358 71.3325 29.1365C71.2125 29.2468 71.1009 29.4481 70.9797 29.4517C70.1697 29.4805 69.3573 29.4673 68.5077 29.4673V31.0461H71.0049C71.0265 31.2858 71.0433 31.4644 71.0649 31.709H68.5053V33.4603C69.2997 33.4603 70.1037 33.4747 70.9053 33.4603C71.3433 33.4483 71.5761 33.5586 71.4273 34.0429L67.6953 34.0369Z" fill="white"/>
<path d="M77.4786 34.0365L76.4766 33.4539L76.7562 32.8809C77.4606 33.521 78.2922 33.5522 79.1178 33.3903C79.3758 33.34 79.689 33.0187 79.7586 32.7622C79.803 32.5992 79.4898 32.2324 79.2594 32.1245C78.7547 31.8975 78.2279 31.7232 77.6874 31.6042C77.0178 31.4436 76.647 31.0312 76.5894 30.3791C76.5342 29.7653 77.0694 29.0197 77.727 28.9406C78.4215 28.8701 79.1227 28.9024 79.8078 29.0365C80.3514 29.136 80.3346 29.2223 80.1798 29.6958C79.473 29.6299 78.789 29.492 78.1194 29.54C77.8458 29.5604 77.4846 29.9404 77.3718 30.2353C77.2158 30.6428 77.5398 30.8706 77.9526 30.9773C78.4458 31.1055 78.9126 31.3525 79.4094 31.4376C80.0478 31.5467 80.4426 31.9063 80.5422 32.4853C80.6514 33.1182 80.2818 33.5761 79.7358 33.8854C79.6661 33.9308 79.6 33.9813 79.5378 34.0365H77.4786Z" fill="white"/>
<path d="M42.6007 34.0365C42.4171 33.931 42.2407 33.8136 42.0487 33.7249C41.6263 33.5307 41.5855 33.2669 41.9107 32.8917C42.5527 33.4995 43.3579 33.5103 44.1739 33.4396C44.5783 33.4048 44.9287 33.2657 44.9911 32.7803C45.0535 32.2948 44.7343 32.1809 44.3551 32.0718C43.8439 31.9327 43.3435 31.7553 42.8383 31.5923C42.1183 31.3657 41.6827 30.8815 41.7007 30.3204C41.7199 29.6887 42.2827 29.0546 42.9667 28.8915C43.845 28.6993 44.7637 28.8522 45.5323 29.3183C45.4423 29.4909 45.3499 29.6659 45.3439 29.6779C44.5855 29.6108 43.9267 29.5113 43.2679 29.5101C42.8239 29.5101 42.5131 29.7894 42.4639 30.2689C42.4147 30.7484 42.7507 30.8755 43.1215 30.9881C43.6315 31.138 44.1271 31.3334 44.6419 31.4592C45.1567 31.5851 45.5815 31.8189 45.6691 32.3739C45.7567 32.9289 45.6763 33.4444 45.0955 33.744C44.98 33.8273 44.8766 33.9261 44.7883 34.0377L42.6007 34.0365Z" fill="white"/>
<path d="M86.235 34.0361C86.073 33.9426 85.9122 33.8455 85.749 33.7556C85.4082 33.5686 85.3074 33.3325 85.4598 33.1443C86.2998 33.2641 87.0102 33.402 87.7314 33.4296C87.8875 33.4213 88.0404 33.3822 88.1813 33.3145C88.3222 33.2468 88.4483 33.1519 88.5522 33.0352C88.8222 32.7187 88.7706 32.3435 88.3122 32.1781C87.7314 31.9719 87.1458 31.7753 86.5554 31.5991C85.7586 31.3593 85.4754 31.0657 85.4682 30.4004C85.4562 29.6595 85.8282 29.065 86.5398 28.9307C87.423 28.7629 88.3302 28.691 89.1702 29.3275L88.9002 29.8441L88.887 29.6631C88.2282 29.6104 87.567 29.5145 86.9106 29.5229C86.5098 29.5229 86.1906 29.7626 86.1594 30.2421C86.1306 30.6917 86.3478 30.8811 86.7666 30.983C87.261 31.1028 87.7266 31.3426 88.2234 31.4445C88.7958 31.5643 89.2266 31.8305 89.3646 32.413C89.5026 32.9956 89.229 33.4404 88.7466 33.7688C88.635 33.8529 88.5284 33.9433 88.4274 34.0397L86.235 34.0361Z" fill="white"/>
<path d="M50.8359 34.0364V28.8675L51.6087 28.8291V34.0352L50.8359 34.0364Z" fill="white"/>
<path d="M17.888 13.0977H21.89V15.808C21.89 17.0511 21.7844 18.3062 21.9212 19.5337C22.0412 20.6413 21.4412 21.0693 20.6372 21.4876C18.4256 22.6432 16.0772 23.0987 13.5896 22.9824C11.5388 22.8865 9.66316 22.3183 7.99396 21.1016C5.89996 19.5744 4.65316 17.5414 4.24996 14.9797C3.83356 12.3424 4.33396 9.88024 5.86036 7.70333C6.89013 6.21514 8.358 5.08397 10.0604 4.46674C12.0248 3.7475 14.0204 3.40705 16.1312 3.76907C17.378 3.98245 18.6032 4.25576 19.6976 4.87191C20.4992 5.32264 21.2036 5.95078 21.9296 6.53336C22.2152 6.75992 22.1756 7.04043 21.896 7.28857C21.2096 7.88913 20.5208 8.4885 19.8656 9.12863C19.5452 9.4415 19.3256 9.43431 19.0256 9.11904C16.9856 7.01166 13.4024 6.92775 11.1476 8.28951C9.68836 9.16819 8.93356 10.5539 8.61556 12.2046C8.27116 14.0027 8.69836 15.6438 9.70276 17.1014C10.4552 18.1923 11.6336 18.7425 12.9032 19.1273C14.4908 19.6068 15.9728 19.2712 17.4632 18.7521C17.8232 18.6322 17.8964 18.4224 17.894 18.0832C17.8808 16.4409 17.888 14.7951 17.888 13.0977Z" fill="white"/>
<path d="M81.9942 3.67892C82.7334 3.67892 83.4342 3.67892 84.1326 3.67892C84.5406 3.67892 84.9606 3.73047 85.3518 3.64656C85.9638 3.51469 86.1246 3.69091 86.1186 4.31066C86.0886 7.33148 86.1594 10.3535 86.0838 13.3719C86.0394 15.1964 85.7826 17.0365 84.7938 18.626C83.781 20.2551 82.4106 21.5245 80.5938 22.2869C78.4722 23.1764 76.3158 23.2279 74.1558 22.5938C71.8878 21.9273 70.2006 20.4984 69.0126 18.439C68.0526 16.7871 67.8606 14.9914 67.839 13.1645C67.8042 10.1437 67.8282 7.1229 67.8306 4.10088C67.8306 3.981 67.8546 3.85514 67.8714 3.6993H71.817V4.40416C71.817 7.36145 71.8242 10.3187 71.817 13.2748C71.817 14.7625 72.1974 16.1362 73.1034 17.3098C73.6377 18.0003 74.3824 18.4985 75.225 18.7291C76.8894 19.181 78.5514 19.1103 79.9746 18.0566C80.5839 17.6213 81.0822 17.0489 81.429 16.3856C81.7759 15.7223 81.9617 14.9869 81.9714 14.2386C82.0338 11.1219 81.9942 7.99438 81.9966 4.87167L81.9942 3.67892Z" fill="white"/>
<path d="M99.042 18.5691C98.9364 17.7156 98.4 17.3056 97.854 16.9652C96.672 16.2268 95.4432 15.5627 94.2456 14.8458C92.7084 13.9252 91.1016 13.0921 89.6784 12.018C88.374 11.0338 87.6876 8.82577 88.4964 6.86343C89.484 4.46596 91.4088 3.65321 93.7764 3.61605C96.348 3.57649 98.9208 3.6604 101.494 3.6628C101.952 3.6628 102.082 3.81025 102.071 4.25258C102.044 5.36261 102.062 6.47264 102.062 7.63782C101.774 7.6546 101.569 7.67738 101.365 7.67738C98.856 7.67738 96.348 7.66778 93.84 7.68936C93.4376 7.7007 93.0406 7.78562 92.6688 7.9399C92.2416 8.11372 92.0508 8.48412 92.484 8.82097C93.3501 9.51519 94.2513 10.1646 95.184 10.7665C97.1328 11.9868 99.1716 13.0717 101.072 14.3627C102.676 15.4488 103.445 17.0455 103.09 19.0378C102.85 20.3756 102.137 21.4089 101.02 22.1941C99.642 23.1639 98.0472 22.9889 96.5148 23.074C95.0856 23.1543 93.648 23.092 92.3028 23.092L89.718 18.9947C92.9196 18.9395 96.0156 19.3771 99.042 18.5691Z" fill="white"/>
<path d="M64.5078 3.71946V7.68489H62.0418C60.177 7.68489 58.311 7.66451 56.445 7.68489C56.0024 7.71241 55.5656 7.79992 55.1466 7.94501C54.6906 8.08047 54.6522 8.47965 54.9258 8.74697C55.4411 9.27403 56.0143 9.7413 56.6346 10.1399C58.8798 11.5184 61.1946 12.7927 63.4098 14.2156C65.0646 15.2765 65.9298 16.8528 65.6322 18.8715C65.3418 20.7991 64.1574 22.4342 62.139 22.7494C60.2334 23.0479 58.2618 22.9101 56.3238 23.0323C55.1838 23.1031 54.4266 22.7842 53.9238 21.6682C53.5086 20.7415 52.8354 19.93 52.2846 19.0789C53.8854 19.0789 55.443 19.1161 56.9982 19.0681C58.257 19.0285 59.5182 18.9039 60.7686 18.7732C61.0266 18.7468 61.479 18.5059 61.4706 18.3944C61.4454 18.0911 61.2978 17.6943 61.0626 17.5289C60.045 16.8157 58.989 16.1528 57.9258 15.509C56.4738 14.6304 54.9918 13.8032 53.5458 12.9174C52.9474 12.5676 52.3909 12.1505 51.8874 11.6743C50.4054 10.2022 50.4402 7.72684 51.345 6.18167C52.425 4.33561 54.129 3.64993 56.1246 3.61637C58.8258 3.57202 61.5246 3.64634 64.2306 3.67151C64.324 3.68138 64.4166 3.6974 64.5078 3.71946Z" fill="white"/>
<path d="M48.6179 22.98C47.2367 22.98 45.9299 23.0063 44.6255 22.956C44.3759 22.9464 44.0471 22.6899 43.9055 22.4549C43.0931 21.0919 42.3455 19.6978 41.5427 18.3205C40.3235 16.2227 39.0839 14.1369 37.8503 12.0463C37.6799 11.7574 37.5107 11.4685 37.3187 11.194C36.8123 10.4747 36.1187 10.4172 35.6159 11.1496C34.9487 12.1254 34.3763 13.1659 33.7787 14.1884C32.7459 15.9577 31.7203 17.7319 30.7019 19.5108C30.1787 20.4302 29.6699 21.3593 29.1923 22.3039C28.9523 22.7834 28.6655 23.0231 28.0679 22.9979C26.8523 22.938 25.6319 22.98 24.3047 22.98C25.2479 21.3197 26.1551 19.7338 27.0503 18.143C28.0235 16.4145 28.9835 14.6775 29.9543 12.9477C30.6743 11.6579 31.4023 10.37 32.1383 9.08418C32.8919 7.76078 33.6491 6.43977 34.4099 5.12116C34.7763 4.44117 35.3713 3.91221 36.0899 3.62753C36.8099 3.35781 37.4027 3.86727 37.7951 4.36355C38.5096 5.29943 39.1683 6.2765 39.7679 7.28967C40.4591 8.42368 41.0819 9.59964 41.7383 10.7552C42.6659 12.3879 43.6043 14.0146 44.5247 15.6509C45.8783 18.0579 47.2199 20.4758 48.6179 22.98Z" fill="white"/>
<path d="M112.868 22.6851C113.391 22.9249 113.438 23.1179 113.239 24.2435H110.582C110.025 24.2435 109.467 24.2291 108.91 24.2435C106.774 24.3022 105.956 22.7774 106.078 20.9338C106.117 20.3476 106.3 19.7638 106.475 19.1968C106.557 18.9379 106.733 18.5675 107.119 18.8372C107.411 19.0446 108.011 19.0374 107.744 19.7183C107.524 20.2426 107.395 20.8003 107.362 21.3677C107.336 22.2068 107.92 22.6863 108.657 22.6863C108.562 22.0294 108.429 21.3617 108.377 20.688C108.319 19.9209 108.761 19.3431 109.313 18.9055C110.113 18.2702 111.603 18.3193 112.377 18.9223C113.444 19.7566 113.601 20.9062 112.868 22.6851ZM109.659 21.3593C109.659 22.1901 110.104 22.7139 110.823 22.7259C111.542 22.7379 112.101 22.1661 112.103 21.3869C112.103 20.5082 111.631 20.0084 110.8 20.0215C109.99 20.0323 109.659 20.4207 109.659 21.3593Z" fill="white"/>
<path d="M107.986 9.67187C107.936 8.11351 109.288 6.82606 110.647 6.81647C112.139 6.80568 113.437 8.1243 113.383 9.733C113.316 11.6941 112.11 12.6519 110.651 12.6399C109.241 12.6292 108.01 11.6726 107.986 9.67187ZM110.664 8.41919C109.817 8.42518 109.271 8.94424 109.272 9.7378C109.273 10.5314 109.825 11.0145 110.698 11.0061C111.57 10.9977 112.115 10.4774 112.104 9.70304C112.093 8.92865 111.503 8.41319 110.664 8.41919Z" fill="white"/>
<path d="M112.02 17.4276C111.87 16.0107 111.464 15.6523 110.041 15.6487H108.031V14.1719H113.22C113.482 15.2423 113.394 15.5648 112.86 15.6835L113.522 17.4276H112.02Z" fill="white"/>
<path d="M109.862 4.80088C109.849 5.25161 109.364 5.74069 108.932 5.74069C108.479 5.74069 107.98 5.21205 107.984 4.73615C107.989 4.26025 108.454 3.82031 108.928 3.82031C109.054 3.82133 109.179 3.84775 109.295 3.89798C109.411 3.94821 109.516 4.02123 109.603 4.11271C109.69 4.20419 109.758 4.31225 109.803 4.43047C109.847 4.54869 109.868 4.67466 109.862 4.80088Z" fill="white"/>
</svg>
