<svg width="178" height="67" viewBox="0 0 178 67" fill="none" xmlns="http://www.w3.org/2000/svg">
<g clip-path="url(#clip0_696_7780)">
<path d="M17.7969 39.7432C19.3737 47.5145 35.5921 52.9206 40.8856 39.4053C37.732 43.6851 27.9334 50.1049 17.7969 39.7432Z" fill="white"/>
<path d="M73.5695 29.6061L72.703 27.5094H68.1598L67.2932 29.6061H64.9727L69.3341 19.8211H71.5706L75.946 29.6061H73.5695ZM68.8867 25.79H71.9901L70.4385 22.0437L68.8867 25.79ZM81.5076 29.7739C78.474 29.7739 76.2095 27.663 76.2095 24.7135C76.2095 21.7641 78.474 19.6533 81.5215 19.6533C83.213 19.6533 84.6247 20.2684 85.5473 21.3867L84.0935 22.7286C83.4367 21.9738 82.6118 21.5824 81.6333 21.5824C79.8022 21.5824 78.5022 22.8685 78.5022 24.7135C78.5022 26.5588 79.8022 27.8448 81.6333 27.8448C82.6118 27.8448 83.4367 27.4533 84.0935 26.6845L85.5473 28.0266C84.6247 29.1587 83.213 29.7739 81.5076 29.7739ZM91.5547 29.7739C88.5214 29.7739 86.2566 27.663 86.2566 24.7135C86.2566 21.7641 88.5214 19.6533 91.5686 19.6533C93.2601 19.6533 94.672 20.2684 95.5944 21.3867L94.1406 22.7286C93.4838 21.9738 92.6589 21.5824 91.6804 21.5824C89.8492 21.5824 88.5493 22.8685 88.5493 24.7135C88.5493 26.5588 89.8492 27.8448 91.6804 27.8448C92.6589 27.8448 93.4838 27.4533 94.1406 26.6845L95.5944 28.0266C94.672 29.1587 93.2601 29.7739 91.5547 29.7739ZM105.79 29.6061H103.358L101.471 26.8803H101.359H99.3882V29.6061H97.1237V19.8211H101.359C103.973 19.8211 105.609 21.177 105.609 23.3717C105.609 24.8395 104.868 25.9157 103.596 26.4609L105.79 29.6061ZM103.316 23.3717C103.316 22.2953 102.617 21.6662 101.233 21.6662H99.3882V25.0771H101.233C102.617 25.0771 103.316 24.434 103.316 23.3717ZM109.654 27.789H114.979V29.6061H107.403V19.8211H114.798V21.6383H109.654V23.763H114.196V25.5242H109.654V27.789ZM116.781 29.6061V19.8211H121.226C124.427 19.8211 126.622 21.7501 126.622 24.7135C126.622 27.677 124.427 29.6061 121.226 29.6061H116.781ZM119.046 27.7468H121.115C123.058 27.7468 124.33 26.5868 124.33 24.7135C124.33 22.8405 123.058 21.6802 121.115 21.6802H119.046V27.7468ZM128.33 29.6061V19.8211H130.594V29.6061H128.33ZM134.943 29.6061V21.6662H131.812V19.8211H140.339V21.6662H137.208V29.6061H134.943ZM143.808 27.789H149.134V29.6061H141.558V19.8211H148.952V21.6383H143.808V23.763H148.351V25.5242H143.808V27.789ZM150.936 29.6061V19.8211H155.381C158.582 19.8211 160.777 21.7501 160.777 24.7135C160.777 27.677 158.582 29.6061 155.381 29.6061H150.936ZM153.2 27.7468H155.269C157.212 27.7468 158.484 26.5868 158.484 24.7135C158.484 22.8405 157.212 21.6802 155.269 21.6802H153.2V27.7468ZM73.4439 41.6372C74.5341 41.9868 75.2331 42.8255 75.2331 44.0556C75.2331 45.747 73.8912 46.7256 71.319 46.7256H66.2589V36.9404H71.0395C73.4858 36.9404 74.7438 37.9611 74.7438 39.4847C74.7438 40.4632 74.2406 41.218 73.4439 41.6372ZM70.7599 38.6458H68.5094V40.9525H70.7599C71.8641 40.9525 72.4653 40.561 72.4653 39.7922C72.4653 39.0234 71.8641 38.6458 70.7599 38.6458ZM71.1514 45.0201C72.3255 45.0201 72.9546 44.6568 72.9546 43.8179C72.9546 42.9933 72.3255 42.6018 71.1514 42.6018H68.5094V45.0201H71.1514ZM81.2949 46.8934C78.5132 46.8934 76.8637 45.2997 76.8637 42.4202V36.9404H79.1282V42.3362C79.1282 44.1955 79.9389 44.9643 81.3089 44.9643C82.6926 44.9643 83.4896 44.1955 83.4896 42.3362V36.9404H85.7262V42.4202C85.7262 45.2997 84.0766 46.8934 81.2949 46.8934ZM91.1789 46.8934C89.6274 46.8934 88.0618 46.432 87.1951 45.761L87.9639 44.0556C88.7885 44.6568 90.0186 45.076 91.1929 45.076C92.535 45.076 93.0801 44.6289 93.0801 44.0277C93.0801 42.1966 87.3908 43.4546 87.3908 39.8201C87.3908 38.1566 88.7327 36.7728 91.5143 36.7728C92.7445 36.7728 94.0027 37.0664 94.9112 37.6394L94.2122 39.3588C93.3038 38.8416 92.3672 38.59 91.5004 38.59C90.1585 38.59 89.6413 39.0932 89.6413 39.7084C89.6413 41.5116 95.3306 40.2675 95.3306 43.8598C95.3306 45.4954 93.9746 46.8934 91.1789 46.8934ZM96.8779 46.7256V36.9404H99.1426V46.7256H96.8779ZM108.202 36.9404H110.439V46.7256H108.58L103.701 40.7847V46.7256H101.465V36.9404H103.338L108.202 42.8813V36.9404ZM115.005 44.9084H120.33V46.7256H112.754V36.9404H120.149V38.7578H115.005V40.8824H119.548V42.6437H115.005V44.9084ZM125.347 46.8934C123.796 46.8934 122.23 46.432 121.363 45.761L122.132 44.0556C122.957 44.6568 124.187 45.076 125.361 45.076C126.703 45.076 127.249 44.6289 127.249 44.0277C127.249 42.1966 121.559 43.4546 121.559 39.8201C121.559 38.1566 122.901 36.7728 125.683 36.7728C126.913 36.7728 128.171 37.0664 129.08 37.6394L128.381 39.3588C127.472 38.8416 126.536 38.59 125.669 38.59C124.327 38.59 123.81 39.0932 123.81 39.7084C123.81 41.5116 129.499 40.2675 129.499 43.8598C129.499 45.4954 128.143 46.8934 125.347 46.8934ZM134.262 46.8934C132.71 46.8934 131.144 46.432 130.278 45.761L131.046 44.0556C131.871 44.6568 133.101 45.076 134.276 45.076C135.617 45.076 136.163 44.6289 136.163 44.0277C136.163 42.1966 130.473 43.4546 130.473 39.8201C130.473 38.1566 131.815 36.7728 134.597 36.7728C135.827 36.7728 137.085 37.0664 137.994 37.6394L137.295 39.3588C136.386 38.8416 135.45 38.59 134.583 38.59C133.241 38.59 132.724 39.0932 132.724 39.7084C132.724 41.5116 138.413 40.2675 138.413 43.8598C138.413 45.4954 137.057 46.8934 134.262 46.8934ZM151.23 46.7256L150.363 44.6289H145.82L144.954 46.7256H142.633L146.995 36.9404H149.231L153.607 46.7256H151.23ZM146.547 42.9095H149.651L148.099 39.163L146.547 42.9095ZM160.654 40.9804V42.6858H158.222V45.062H156.419V42.6858H154.001V40.9804H156.419V38.604H158.222V40.9804H160.654Z" fill="white"/>
<path d="M172.32 0.661133H4.95499C2.52909 0.661133 0.5625 2.62772 0.5625 5.05362V61.1424C0.5625 63.5683 2.52909 65.5349 4.95499 65.5349H172.32C174.746 65.5349 176.713 63.5683 176.713 61.1424V5.05362C176.713 2.62772 174.746 0.661133 172.32 0.661133Z" stroke="white" stroke-width="1.12628"/>
<path fill-rule="evenodd" clip-rule="evenodd" d="M29.395 42.2202C35.6773 42.2202 40.7704 36.9256 40.7704 30.3943C40.7704 23.863 35.6773 18.5684 29.395 18.5684C23.1126 18.5684 18.0195 23.863 18.0195 30.3943C18.0195 36.9256 23.1126 42.2202 29.395 42.2202ZM32.6465 41.3913C35.055 40.6565 35.5084 35.147 33.6593 29.0849C31.8104 23.023 28.359 18.7045 25.9503 19.4391C23.5419 20.1738 23.0885 25.6835 24.9376 31.7454C26.7867 37.8072 30.2381 42.1259 32.6465 41.3913Z" fill="white"/>
<path d="M55.75 64.9714V0.0976562" stroke="white" stroke-width="1.12628"/>
</g>
<defs>
<clipPath id="clip0_696_7780">
<rect width="177.276" height="66" fill="white" transform="translate(0 0.0976562)"/>
</clipPath>
</defs>
</svg>
