<svg width="16" height="17" viewBox="0 0 16 17" fill="none" xmlns="http://www.w3.org/2000/svg">
<g clip-path="url(#clip0_696_7825)">
<path d="M1.77778 2.32031C1.30628 2.32031 0.854097 2.50761 0.520699 2.84101C0.187301 3.17441 0 3.62659 0 4.09809L0 12.0981C0 12.5696 0.187301 13.0218 0.520699 13.3552C0.854097 13.6886 1.30628 13.8759 1.77778 13.8759H5.33333V2.32031H1.77778Z" fill="#009A49"/>
<path d="M5.33203 2.32031H10.6654V13.8759H5.33203V2.32031Z" fill="#EEEEEE"/>
<path d="M14.2235 2.32031H10.668V13.8759H14.2235C14.695 13.8759 15.1472 13.6886 15.4806 13.3552C15.814 13.0218 16.0013 12.5696 16.0013 12.0981V4.09809C16.0013 3.62659 15.814 3.17441 15.4806 2.84101C15.1472 2.50761 14.695 2.32031 14.2235 2.32031Z" fill="#009A49"/>
</g>
<defs>
<clipPath id="clip0_696_7825">
<rect width="16" height="16" fill="white" transform="translate(0 0.0976562)"/>
</clipPath>
</defs>
</svg>
